<svg width="375" height="667" viewBox="0 0 375 667" fill="none" xmlns="http://www.w3.org/2000/svg">
<rect width="375" height="667" fill="url(#paint0_linear_8_68)"/>
<path fill-rule="evenodd" clip-rule="evenodd" d="M-250.5 0C-251.328 0 -252 0.671573 -252 1.5C-252 2.32843 -251.328 3 -250.5 3C-249.672 3 -249 2.32843 -249 1.5C-249 0.671573 -249.672 0 -250.5 0ZM39.5 10C38.6716 10 38 10.6716 38 11.5C38 12.3284 38.6716 13 39.5 13C40.3284 13 41 12.3284 41 11.5C41 10.6716 40.3284 10 39.5 10ZM-532 15.5C-532 14.6716 -531.328 14 -530.5 14C-529.672 14 -529 14.6716 -529 15.5C-529 16.3284 -529.672 17 -530.5 17C-531.328 17 -532 16.3284 -532 15.5ZM-120 29C-118.343 29 -117 27.6569 -117 26C-117 24.3431 -118.343 23 -120 23C-121.657 23 -123 24.3431 -123 26C-123 27.6569 -121.657 29 -120 29ZM604 35C602.343 35 601 33.6569 601 32C601 30.3431 602.343 29 604 29C605.657 29 607 30.3431 607 32C607 33.6569 605.657 35 604 35ZM-424 113C-424 114.657 -425.343 116 -427 116C-428.657 116 -430 114.657 -430 113C-430 111.343 -428.657 110 -427 110C-425.343 110 -424 111.343 -424 113ZM-279 348C-279 349.657 -280.343 351 -282 351C-283.657 351 -285 349.657 -285 348C-285 346.343 -283.657 345 -282 345C-280.343 345 -279 346.343 -279 348ZM674 305C675.657 305 677 303.657 677 302C677 300.343 675.657 299 674 299C672.343 299 671 300.343 671 302C671 303.657 672.343 305 674 305ZM673 229C673 230.657 674.343 232 676 232C677.657 232 679 230.657 679 229C679 227.343 677.657 226 676 226C674.343 226 673 227.343 673 229ZM819 540C820.657 540 822 538.657 822 537C822 535.343 820.657 534 819 534C817.343 534 816 535.343 816 537C816 538.657 817.343 540 819 540ZM-351 545C-351 546.657 -352.343 548 -354 548C-355.657 548 -357 546.657 -357 545C-357 543.343 -355.657 542 -354 542C-352.343 542 -351 543.343 -351 545ZM-252 513C-250.343 513 -249 511.657 -249 510C-249 508.343 -250.343 507 -252 507C-253.657 507 -255 508.343 -255 510C-255 511.657 -253.657 513 -252 513ZM245 566C245 567.657 243.657 569 242 569C240.343 569 239 567.657 239 566C239 564.343 240.343 563 242 563C243.657 563 245 564.343 245 566ZM571 194C571 195.657 572.343 197 574 197C575.657 197 577 195.657 577 194C577 192.343 575.657 191 574 191C572.343 191 571 192.343 571 194ZM73 221.5C73 220.672 73.6716 220 74.5 220C75.3284 220 76 220.672 76 221.5C76 222.328 75.3284 223 74.5 223C73.6716 223 73 222.328 73 221.5ZM4.5 106C3.67157 106 3 106.672 3 107.5C3 108.328 3.67157 109 4.5 109C5.32843 109 6 108.328 6 107.5C6 106.672 5.32843 106 4.5 106ZM-462 129.5C-462 128.672 -461.328 128 -460.5 128C-459.672 128 -459 128.672 -459 129.5C-459 130.328 -459.672 131 -460.5 131C-461.328 131 -462 130.328 -462 129.5ZM-461.5 164C-460.672 164 -460 164.672 -460 165.5C-460 166.328 -460.672 167 -461.5 167C-462.328 167 -463 166.328 -463 165.5C-463 164.672 -462.328 164 -461.5 164ZM-12 28.5C-12 27.6716 -11.3284 27 -10.5 27C-9.67157 27 -9 27.6716 -9 28.5C-9 29.3284 -9.67157 30 -10.5 30C-11.3284 30 -12 29.3284 -12 28.5ZM-425 260.5C-425 259.672 -425.672 259 -426.5 259C-427.328 259 -428 259.672 -428 260.5C-428 261.328 -427.328 262 -426.5 262C-425.672 262 -425 261.328 -425 260.5ZM-411.5 181C-410.672 181 -410 181.672 -410 182.5C-410 183.328 -410.672 184 -411.5 184C-412.328 184 -413 183.328 -413 182.5C-413 181.672 -412.328 181 -411.5 181ZM-76 263.5C-76 262.672 -75.3284 262 -74.5 262C-73.6716 262 -73 262.672 -73 263.5C-73 264.328 -73.6716 265 -74.5 265C-75.3284 265 -76 264.328 -76 263.5ZM-530.5 516C-529.672 516 -529 516.672 -529 517.5C-529 518.328 -529.672 519 -530.5 519C-531.328 519 -532 518.328 -532 517.5C-532 516.672 -531.328 516 -530.5 516ZM-459 403.5C-459 402.672 -459.672 402 -460.5 402C-461.328 402 -462 402.672 -462 403.5C-462 404.328 -461.328 405 -460.5 405C-459.672 405 -459 404.328 -459 403.5ZM4.5 424C5.32843 424 6 424.672 6 425.5C6 426.328 5.32843 427 4.5 427C3.67157 427 3 426.328 3 425.5C3 424.672 3.67157 424 4.5 424ZM4 461.5C4 460.672 4.67157 460 5.5 460C6.32843 460 7 460.672 7 461.5C7 462.328 6.32843 463 5.5 463C4.67157 463 4 462.328 4 461.5ZM74.5 310C75.3284 310 76 310.672 76 311.5C76 312.328 75.3284 313 74.5 313C73.6716 313 73 312.328 73 311.5C73 310.672 73.6716 310 74.5 310ZM-494 307.5C-494 306.672 -494.672 306 -495.5 306C-496.328 306 -497 306.672 -497 307.5C-497 308.328 -496.328 309 -495.5 309C-494.672 309 -494 308.328 -494 307.5ZM-445.5 323C-444.672 323 -444 323.672 -444 324.5C-444 325.328 -444.672 326 -445.5 326C-446.328 326 -447 325.328 -447 324.5C-447 323.672 -446.328 323 -445.5 323ZM-204 297.5C-204 296.672 -204.672 296 -205.5 296C-206.328 296 -207 296.672 -207 297.5C-207 298.328 -206.328 299 -205.5 299C-204.672 299 -204 298.328 -204 297.5ZM-29.5 555C-30.3284 555 -31 555.672 -31 556.5C-31 557.328 -30.3284 558 -29.5 558C-28.6716 558 -28 557.328 -28 556.5C-28 555.672 -28.6716 555 -29.5 555ZM-46 478.5C-46 477.672 -45.3284 477 -44.5 477C-43.6716 477 -43 477.672 -43 478.5C-43 479.328 -43.6716 480 -44.5 480C-45.3284 480 -46 479.328 -46 478.5ZM-381.5 558C-380.672 558 -380 558.672 -380 559.5C-380 560.328 -380.672 561 -381.5 561C-382.328 561 -383 560.328 -383 559.5C-383 558.672 -382.328 558 -381.5 558ZM170 339.5C170 340.328 169.328 341 168.5 341C167.672 341 167 340.328 167 339.5C167 338.672 167.672 338 168.5 338C169.328 338 170 338.672 170 339.5ZM238.5 455C239.328 455 240 454.328 240 453.5C240 452.672 239.328 452 238.5 452C237.672 452 237 452.672 237 453.5C237 454.328 237.672 455 238.5 455ZM705 431.5C705 432.328 704.328 433 703.5 433C702.672 433 702 432.328 702 431.5C702 430.672 702.672 430 703.5 430C704.328 430 705 430.672 705 431.5ZM704.5 397C703.672 397 703 396.328 703 395.5C703 394.672 703.672 394 704.5 394C705.328 394 706 394.672 706 395.5C706 396.328 705.328 397 704.5 397ZM775 545.5C775 546.328 774.328 547 773.5 547C772.672 547 772 546.328 772 545.5C772 544.672 772.672 544 773.5 544C774.328 544 775 544.672 775 545.5ZM203.5 551C204.328 551 205 550.328 205 549.5C205 548.672 204.328 548 203.5 548C202.672 548 202 548.672 202 549.5C202 550.328 202.672 551 203.5 551ZM255 532.5C255 533.328 254.328 534 253.5 534C252.672 534 252 533.328 252 532.5C252 531.672 252.672 531 253.5 531C254.328 531 255 531.672 255 532.5ZM493.5 561C494.328 561 495 560.328 495 559.5C495 558.672 494.328 558 493.5 558C492.672 558 492 558.672 492 559.5C492 560.328 492.672 561 493.5 561ZM668 300.5C668 301.328 668.672 302 669.5 302C670.328 302 671 301.328 671 300.5C671 299.672 670.328 299 669.5 299C668.672 299 668 299.672 668 300.5ZM654.5 380C653.672 380 653 379.328 653 378.5C653 377.672 653.672 377 654.5 377C655.328 377 656 377.672 656 378.5C656 379.328 655.328 380 654.5 380ZM319 297.5C319 298.328 318.328 299 317.5 299C316.672 299 316 298.328 316 297.5C316 296.672 316.672 296 317.5 296C318.328 296 319 296.672 319 297.5ZM906.5 45C905.672 45 905 44.3284 905 43.5C905 42.6716 905.672 42 906.5 42C907.328 42 908 42.6716 908 43.5C908 44.3284 907.328 45 906.5 45ZM835 157.5C835 158.328 835.672 159 836.5 159C837.328 159 838 158.328 838 157.5C838 156.672 837.328 156 836.5 156C835.672 156 835 156.672 835 157.5ZM371.5 137C370.672 137 370 136.328 370 135.5C370 134.672 370.672 134 371.5 134C372.328 134 373 134.672 373 135.5C373 136.328 372.328 137 371.5 137ZM372 99.5C372 100.328 371.328 101 370.5 101C369.672 101 369 100.328 369 99.5C369 98.6716 369.672 98 370.5 98C371.328 98 372 98.6716 372 99.5ZM301.5 251C300.672 251 300 250.328 300 249.5C300 248.672 300.672 248 301.5 248C302.328 248 303 248.672 303 249.5C303 250.328 302.328 251 301.5 251ZM870 253.5C870 254.328 870.672 255 871.5 255C872.328 255 873 254.328 873 253.5C873 252.672 872.328 252 871.5 252C870.672 252 870 252.672 870 253.5ZM821.5 238C820.672 238 820 237.328 820 236.5C820 235.672 820.672 235 821.5 235C822.328 235 823 235.672 823 236.5C823 237.328 822.328 238 821.5 238ZM580 263.5C580 264.328 580.672 265 581.5 265C582.328 265 583 264.328 583 263.5C583 262.672 582.328 262 581.5 262C580.672 262 580 262.672 580 263.5ZM405.5 6C406.328 6 407 5.32843 407 4.5C407 3.67157 406.328 3 405.5 3C404.672 3 404 3.67157 404 4.5C404 5.32843 404.672 6 405.5 6ZM422 82.5C422 83.3284 421.328 84 420.5 84C419.672 84 419 83.3284 419 82.5C419 81.6716 419.672 81 420.5 81C421.328 81 422 81.6716 422 82.5ZM757.5 3C756.672 3 756 2.32843 756 1.5C756 0.671573 756.672 0 757.5 0C758.328 0 759 0.671573 759 1.5C759 2.32843 758.328 3 757.5 3Z" fill="#46485B"/>
<path fill-rule="evenodd" clip-rule="evenodd" d="M440 531.005L218.118 499L130.479 531.005L85.2375 515.003L-118.025 499L-217.431 531.005L-277.909 515.003L-310.31 525.688L-440.15 499L-469 510.284V601H440V531.005Z" fill="#211A29"/>
<path fill-rule="evenodd" clip-rule="evenodd" d="M249 526L280.903 544L331 540.482L249 526Z" fill="#1A1823"/>
<path fill-rule="evenodd" clip-rule="evenodd" d="M89 499L188.081 552L239 535.388L89 499Z" fill="#1A1823"/>
<path fill-rule="evenodd" clip-rule="evenodd" d="M-469 551.715L-247.118 499L-159.479 551.715L-114.237 525.357L89.025 499L188.431 551.715L248.909 525.357L281.31 542.956L411.15 499L440 517.586V667H-469V551.715Z" fill="#2F2439"/>
<defs>
<linearGradient id="paint0_linear_8_68" x1="0.113813" y1="0.404904" x2="0.113813" y2="667" gradientUnits="userSpaceOnUse">
<stop offset="0.000607052" stop-color="#1D1E28"/>
<stop offset="0.948321" stop-color="#261C2D"/>
<stop offset="1" stop-color="#261A2D"/>
</linearGradient>
</defs>
</svg>
